<?xml version="1.0" encoding="UTF-8" standalone="no"?><!-- Generator: Gravit.io --><svg xmlns="http://www.w3.org/2000/svg" xmlns:xlink="http://www.w3.org/1999/xlink" style="isolation:isolate" viewBox="0 0 512 512" width="512pt" height="512pt"><defs><clipPath id="_clipPath_jLEWupHgtFUywWVHKKDFa9VETKPrCAju"><rect width="512" height="512"/></clipPath></defs><g clip-path="url(#_clipPath_jLEWupHgtFUywWVHKKDFa9VETKPrCAju)"><rect width="512" height="512" style="fill:rgb(33,32,34)" fill-opacity="0"/><clipPath id="_clipPath_zSF0p1CUF9c0uNeCR08SrwU7T7wUomDA"><rect x="-98.121" y="-282.369" width="427.322" height="753.659" transform="matrix(0.707,0.707,-0.707,0.707,100.634,-54.032)" fill="rgb(255,255,255)"/></clipPath><g clip-path="url(#_clipPath_zSF0p1CUF9c0uNeCR08SrwU7T7wUomDA)"><defs><filter id="EWVnkqJtMNWkx29YXzdOBAI17H67JUo0" x="-200%" y="-200%" width="400%" height="400%" filterUnits="objectBoundingBox" color-interpolation-filters="sRGB"><feGaussianBlur xmlns="http://www.w3.org/2000/svg" in="SourceGraphic" stdDeviation="2.146804531419514"/><feOffset xmlns="http://www.w3.org/2000/svg" dx="0" dy="0" result="pf_100_offsetBlur"/><feFlood xmlns="http://www.w3.org/2000/svg" flood-color="#000000" flood-opacity="0.4"/><feComposite xmlns="http://www.w3.org/2000/svg" in2="pf_100_offsetBlur" operator="in" result="pf_100_dropShadow"/><feBlend xmlns="http://www.w3.org/2000/svg" in="SourceGraphic" in2="pf_100_dropShadow" mode="normal"/></filter></defs><g filter="url(#EWVnkqJtMNWkx29YXzdOBAI17H67JUo0)"><path d=" M 257.036 78.096 L 257.017 78.081 L 257.017 78.11 C 244.471 86.232 232.251 92.619 211.732 92.619 L 211.732 92.619 C 191.188 92.619 165.716 79.457 165.716 79.457 L 165.716 79.457 L 109 150.816 L 133.621 182.679 C 133.621 182.679 137.021 187.704 137.021 192.898 L 137.021 192.898 C 137.021 198.096 134.809 207.277 128.019 223.208 L 128.019 223.208 C 121.224 239.14 112.737 262.699 112.737 284.868 L 112.737 284.868 C 112.737 307.037 123.152 372.731 256.002 433.928 L 256.002 433.928 C 256.026 433.919 256.051 433.909 256.07 433.895 L 256.07 433.895 C 256.786 433.587 263.047 430.846 272.588 425.95 L 272.588 425.95 C 389.728 367.119 399.263 306.075 399.263 284.868 L 399.263 284.868 C 399.263 280.126 398.874 275.327 398.201 270.552 L 398.201 270.552 C 398.186 270.455 398.172 270.359 398.158 270.263 L 398.158 270.263 C 398.158 270.234 398.153 270.205 398.148 270.177 L 398.148 270.177 C 396.638 258.856 393.57 246.786 389.862 237.178 L 389.862 237.178 C 384.428 223.093 377.186 205.776 375.825 198.385 L 375.825 198.385 C 375.181 194.879 375.003 192.499 375.2 190.561 L 375.2 190.561 C 375.517 188.729 376.142 187.022 376.763 185.665 L 376.763 185.665 C 376.898 185.406 377.037 185.146 377.186 184.877 L 377.186 184.877 C 377.883 183.607 381.144 179.193 385.126 173.946 L 385.126 173.946 L 403 150.816 C 394.637 140.784 386.044 130.95 377.893 120.741 L 377.893 120.741 C 360.418 98.851 346.784 79.207 347.073 78.995 L 347.073 78.995 C 347.073 78.995 344.692 80.726 314.243 90.31 L 314.243 90.31 C 310.444 91.508 306.707 92.215 303.072 92.532 L 303.072 92.532 C 302.129 92.585 301.191 92.619 300.268 92.619 L 300.268 92.619 C 293.94 92.619 288.602 92.013 283.87 90.931 L 283.87 90.931 C 279.633 89.882 275.748 88.478 272.324 86.978 L 272.324 86.978 C 267.154 84.588 262.456 81.601 257.383 78.317 L 257.383 78.317 C 257.181 78.158 257.075 78.072 257.075 78.072 L 257.075 78.072 C 257.06 78.081 257.051 78.086 257.036 78.096 Z  M 256.002 127.377 C 262.788 130.185 270.237 132.499 278.619 133.984 L 278.619 133.984 C 284.764 135.206 291.343 135.946 298.292 135.946 L 298.292 135.946 C 300.807 135.946 303.312 135.846 305.808 135.648 L 305.808 135.648 C 315.017 135.091 324.163 133.229 332.463 130.892 L 332.463 130.892 C 337.715 137.88 343.149 145.016 348.362 151.729 L 348.362 151.729 L 344.274 157.019 L 343.509 158.154 C 342.182 160.111 340.148 163.42 338.196 167.776 L 338.196 167.776 C 335.623 173.268 333.988 178.755 333.247 184.545 L 333.247 184.545 C 332.853 187.204 332.622 189.993 332.622 192.898 L 332.622 192.898 C 332.622 205.473 336.484 220.135 345.135 240.434 L 345.135 240.434 C 351.987 256.51 355.027 268.171 356.224 276.346 L 356.224 276.346 C 356.618 279.386 356.83 282.199 356.792 284.531 L 356.792 284.531 C 356.46 305.921 339.927 331.682 302.23 358.352 L 302.23 358.352 C 285.01 370.538 268.077 379.761 255.988 386.08 L 255.988 386.08 C 255.954 386.066 255.916 386.056 255.882 386.056 L 255.882 386.056 C 205.254 360.271 180.974 338.746 169.101 322.156 L 169.101 322.156 C 157.204 305.536 155.093 290.59 155.093 284.868 L 155.093 284.868 C 155.093 277.193 154.069 266.94 165.875 241.102 L 165.875 241.102 C 175.04 221.035 178.387 206.142 178.387 193.566 L 178.387 193.566 C 178.387 176.735 171.352 163.674 168.082 158.832 L 168.082 158.832 L 167.312 157.702 L 162.811 151.878 L 179.397 130.849 C 189.39 133.677 200.638 135.821 211.732 135.821 L 211.732 135.821 C 229.621 135.821 243.865 132.402 256.002 127.377 Z " fill="rgb(255,255,255)"/></g></g><clipPath id="_clipPath_KENpXlGuOqgLTnmMY0B3sI2jUHWUeIyB"><rect x="203.879" y="19.793" width="427.322" height="753.659" transform="matrix(0.707,0.707,-0.707,0.707,402.749,-179.077)" fill="rgb(255,255,255)"/></clipPath><g clip-path="url(#_clipPath_KENpXlGuOqgLTnmMY0B3sI2jUHWUeIyB)"><defs><filter id="It8HDCCDHrvm2j2sFKup08uB8DHy3gNY" x="-200%" y="-200%" width="400%" height="400%" filterUnits="objectBoundingBox" color-interpolation-filters="sRGB"><feGaussianBlur xmlns="http://www.w3.org/2000/svg" in="SourceGraphic" stdDeviation="2.146804531419514"/><feOffset xmlns="http://www.w3.org/2000/svg" dx="0" dy="0" result="pf_100_offsetBlur"/><feFlood xmlns="http://www.w3.org/2000/svg" flood-color="#000000" flood-opacity="0.4"/><feComposite xmlns="http://www.w3.org/2000/svg" in2="pf_100_offsetBlur" operator="in" result="pf_100_dropShadow"/><feBlend xmlns="http://www.w3.org/2000/svg" in="SourceGraphic" in2="pf_100_dropShadow" mode="normal"/></filter></defs><g filter="url(#It8HDCCDHrvm2j2sFKup08uB8DHy3gNY)"><linearGradient id="_lgradient_3" x1="1" y1="0.4999999999999999" x2="0" y2="0.5" gradientTransform="matrix(294,0,0,355.857,109,78.072)" gradientUnits="userSpaceOnUse"><stop offset="0%" stop-opacity="1" style="stop-color:rgb(146,217,205)"/><stop offset="100%" stop-opacity="1" style="stop-color:rgb(68,150,208)"/></linearGradient><path d=" M 257.036 78.096 L 257.017 78.081 L 257.017 78.11 C 244.471 86.232 232.251 92.619 211.732 92.619 L 211.732 92.619 C 191.188 92.619 165.716 79.457 165.716 79.457 L 165.716 79.457 L 109 150.816 L 133.621 182.679 C 133.621 182.679 137.021 187.704 137.021 192.898 L 137.021 192.898 C 137.021 198.096 134.809 207.277 128.019 223.208 L 128.019 223.208 C 121.224 239.14 112.737 262.699 112.737 284.868 L 112.737 284.868 C 112.737 307.037 123.152 372.731 256.002 433.928 L 256.002 433.928 C 256.026 433.919 256.051 433.909 256.07 433.895 L 256.07 433.895 C 256.786 433.587 263.047 430.846 272.588 425.95 L 272.588 425.95 C 389.728 367.119 399.263 306.075 399.263 284.868 L 399.263 284.868 C 399.263 280.126 398.874 275.327 398.201 270.552 L 398.201 270.552 C 398.186 270.455 398.172 270.359 398.158 270.263 L 398.158 270.263 C 398.158 270.234 398.153 270.205 398.148 270.177 L 398.148 270.177 C 396.638 258.856 393.57 246.786 389.862 237.178 L 389.862 237.178 C 384.428 223.093 377.186 205.776 375.825 198.385 L 375.825 198.385 C 375.181 194.879 375.003 192.499 375.2 190.561 L 375.2 190.561 C 375.517 188.729 376.142 187.022 376.763 185.665 L 376.763 185.665 C 376.898 185.406 377.037 185.146 377.186 184.877 L 377.186 184.877 C 377.883 183.607 381.144 179.193 385.126 173.946 L 385.126 173.946 L 403 150.816 C 394.637 140.784 386.044 130.95 377.893 120.741 L 377.893 120.741 C 360.418 98.851 346.784 79.207 347.073 78.995 L 347.073 78.995 C 347.073 78.995 344.692 80.726 314.243 90.31 L 314.243 90.31 C 310.444 91.508 306.707 92.215 303.072 92.532 L 303.072 92.532 C 302.129 92.585 301.191 92.619 300.268 92.619 L 300.268 92.619 C 293.94 92.619 288.602 92.013 283.87 90.931 L 283.87 90.931 C 279.633 89.882 275.748 88.478 272.324 86.978 L 272.324 86.978 C 267.154 84.588 262.456 81.601 257.383 78.317 L 257.383 78.317 C 257.181 78.158 257.075 78.072 257.075 78.072 L 257.075 78.072 C 257.06 78.081 257.051 78.086 257.036 78.096 Z  M 256.002 127.377 C 262.788 130.185 270.237 132.499 278.619 133.984 L 278.619 133.984 C 284.764 135.206 291.343 135.946 298.292 135.946 L 298.292 135.946 C 300.807 135.946 303.312 135.846 305.808 135.648 L 305.808 135.648 C 315.017 135.091 324.163 133.229 332.463 130.892 L 332.463 130.892 C 337.715 137.88 343.149 145.016 348.362 151.729 L 348.362 151.729 L 344.274 157.019 L 343.509 158.154 C 342.182 160.111 340.148 163.42 338.196 167.776 L 338.196 167.776 C 335.623 173.268 333.988 178.755 333.247 184.545 L 333.247 184.545 C 332.853 187.204 332.622 189.993 332.622 192.898 L 332.622 192.898 C 332.622 205.473 336.484 220.135 345.135 240.434 L 345.135 240.434 C 351.987 256.51 355.027 268.171 356.224 276.346 L 356.224 276.346 C 356.618 279.386 356.83 282.199 356.792 284.531 L 356.792 284.531 C 356.46 305.921 339.927 331.682 302.23 358.352 L 302.23 358.352 C 285.01 370.538 268.077 379.761 255.988 386.08 L 255.988 386.08 C 255.954 386.066 255.916 386.056 255.882 386.056 L 255.882 386.056 C 205.254 360.271 180.974 338.746 169.101 322.156 L 169.101 322.156 C 157.204 305.536 155.093 290.59 155.093 284.868 L 155.093 284.868 C 155.093 277.193 154.069 266.94 165.875 241.102 L 165.875 241.102 C 175.04 221.035 178.387 206.142 178.387 193.566 L 178.387 193.566 C 178.387 176.735 171.352 163.674 168.082 158.832 L 168.082 158.832 L 167.312 157.702 L 162.811 151.878 L 179.397 130.849 C 189.39 133.677 200.638 135.821 211.732 135.821 L 211.732 135.821 C 229.621 135.821 243.865 132.402 256.002 127.377 Z " fill="url(#_lgradient_3)"/></g></g></g></svg>