<?xml version="1.0" encoding="UTF-8" standalone="no"?><!-- Generator: Gravit.io --><svg xmlns="http://www.w3.org/2000/svg" xmlns:xlink="http://www.w3.org/1999/xlink" style="isolation:isolate" viewBox="0 0 512 126" width="512pt" height="126pt"><defs><clipPath id="_clipPath_5cl8KbOpAvjT6WbexFR7LBvQU7cljBMF"><rect width="512" height="126"/></clipPath></defs><g clip-path="url(#_clipPath_5cl8KbOpAvjT6WbexFR7LBvQU7cljBMF)"><defs><filter id="3ZsJ3o6dzA3Kmi9BfwWkTJ725LcoLkgp" x="-200%" y="-200%" width="400%" height="400%" filterUnits="objectBoundingBox" color-interpolation-filters="sRGB"><feGaussianBlur xmlns="http://www.w3.org/2000/svg" in="SourceGraphic" stdDeviation="2.146804531419514"/><feOffset xmlns="http://www.w3.org/2000/svg" dx="0" dy="2" result="pf_100_offsetBlur"/><feFlood xmlns="http://www.w3.org/2000/svg" flood-color="#000000" flood-opacity="0.25"/><feComposite xmlns="http://www.w3.org/2000/svg" in2="pf_100_offsetBlur" operator="in" result="pf_100_dropShadow"/><feBlend xmlns="http://www.w3.org/2000/svg" in="SourceGraphic" in2="pf_100_dropShadow" mode="normal"/></filter></defs><g filter="url(#3ZsJ3o6dzA3Kmi9BfwWkTJ725LcoLkgp)"><linearGradient id="_lgradient_6" x1="0" y1="0.5" x2="1" y2="0.5" gradientTransform="matrix(441.375,0,0,61.602,35.005,28.508)" gradientUnits="userSpaceOnUse"><stop offset="0%" stop-opacity="1" style="stop-color:rgb(53,52,53)"/><stop offset="55.21739130434783%" stop-opacity="0.9882352941176471" style="stop-color:rgb(69,65,70)"/><stop offset="65.21739130434783%" stop-opacity="1" style="stop-color:rgb(138,210,206)"/><stop offset="100%" stop-opacity="1" style="stop-color:rgb(82,162,207)"/></linearGradient><path d=" M 375.723 46.281 L 375.723 46.281 Q 381.153 46.281 384.864 48.996 L 384.864 48.996 L 384.864 48.996 Q 388.575 51.711 390.411 56.535 L 390.411 56.535 L 390.411 56.535 Q 392.247 61.359 392.247 67.727 L 392.247 67.727 L 392.247 68.547 L 392.247 68.547 Q 392.247 74.992 390.411 79.855 L 390.411 79.855 L 390.411 79.855 Q 388.575 84.719 384.903 87.414 L 384.903 87.414 L 384.903 87.414 Q 381.231 90.109 375.802 90.109 L 375.802 90.109 L 375.802 90.109 Q 369.044 90.109 365.02 84.836 L 365.02 84.836 L 364.473 89.328 L 353.888 89.328 L 353.888 29.328 L 365.684 29.328 L 365.684 50.734 L 365.684 50.734 Q 369.513 46.281 375.723 46.281 L 375.723 46.281 L 375.723 46.281 Z  M 380.45 68.547 L 380.45 67.727 L 380.45 67.727 Q 380.45 62.219 378.751 59.016 L 378.751 59.016 L 378.751 59.016 Q 377.052 55.813 372.755 55.813 L 372.755 55.813 L 372.755 55.813 Q 367.598 55.813 365.684 59.953 L 365.684 59.953 L 365.684 76.438 L 365.684 76.438 Q 367.559 80.578 372.833 80.578 L 372.833 80.578 L 372.833 80.578 Q 377.169 80.578 378.809 77.492 L 378.809 77.492 L 378.809 77.492 Q 380.45 74.406 380.45 68.547 L 380.45 68.547 L 380.45 68.547 Z  M 432.341 78.898 L 432.341 78.898 Q 432.341 82.492 432.77 84.719 L 432.77 84.719 L 432.77 84.719 Q 433.2 86.945 434.059 88.664 L 434.059 88.664 L 434.059 89.328 L 422.223 89.328 L 422.223 89.328 Q 421.442 87.805 421.091 85.539 L 421.091 85.539 L 421.091 85.539 Q 417.067 90.109 410.505 90.109 L 410.505 90.109 L 410.505 90.109 Q 406.52 90.109 403.239 88.469 L 403.239 88.469 L 403.239 88.469 Q 399.958 86.828 398.063 83.938 L 398.063 83.938 L 398.063 83.938 Q 396.169 81.047 396.169 77.414 L 396.169 77.414 L 396.169 77.414 Q 396.169 70.734 401.13 67.121 L 401.13 67.121 L 401.13 67.121 Q 406.091 63.508 415.739 63.508 L 415.739 63.508 L 420.544 63.508 L 420.544 61.125 L 420.544 61.125 Q 420.544 58.195 419.059 56.574 L 419.059 56.574 L 419.059 56.574 Q 417.575 54.953 414.606 54.953 L 414.606 54.953 L 414.606 54.953 Q 411.911 54.953 410.407 56.223 L 410.407 56.223 L 410.407 56.223 Q 408.903 57.492 408.903 59.836 L 408.903 59.836 L 397.106 59.836 L 397.106 59.836 Q 397.106 56.047 399.352 52.961 L 399.352 52.961 L 399.352 52.961 Q 401.598 49.875 405.72 48.078 L 405.72 48.078 L 405.72 48.078 Q 409.841 46.281 415.231 46.281 L 415.231 46.281 L 415.231 46.281 Q 420.231 46.281 424.098 47.961 L 424.098 47.961 L 424.098 47.961 Q 427.966 49.641 430.153 53 L 430.153 53 L 430.153 53 Q 432.341 56.359 432.341 61.203 L 432.341 61.203 L 432.341 78.898 L 432.341 78.898 Z  M 413.161 81.164 L 413.161 81.164 Q 415.739 81.164 417.692 80.051 L 417.692 80.051 L 417.692 80.051 Q 419.645 78.938 420.544 77.336 L 420.544 77.336 L 420.544 70.266 L 416.052 70.266 L 416.052 70.266 Q 411.95 70.266 409.938 72.043 L 409.938 72.043 L 409.938 72.043 Q 407.927 73.82 407.927 76.672 L 407.927 76.672 L 407.927 76.672 Q 407.927 78.664 409.352 79.914 L 409.352 79.914 L 409.352 79.914 Q 410.778 81.164 413.161 81.164 L 413.161 81.164 L 413.161 81.164 Z  M 463.059 46.281 L 463.059 46.281 Q 469.427 46.281 472.903 50.09 L 472.903 50.09 L 472.903 50.09 Q 476.38 53.898 476.38 62.531 L 476.38 62.531 L 476.38 89.328 L 464.583 89.328 L 464.583 62.492 L 464.583 62.492 Q 464.583 58.742 462.981 57.277 L 462.981 57.277 L 462.981 57.277 Q 461.38 55.813 458.02 55.813 L 458.02 55.813 L 458.02 55.813 Q 455.716 55.813 454.016 56.789 L 454.016 56.789 L 454.016 56.789 Q 452.317 57.766 451.263 59.563 L 451.263 59.563 L 451.263 89.328 L 439.466 89.328 L 439.466 47.063 L 450.52 47.063 L 450.911 51.945 L 450.911 51.945 Q 453.138 49.172 456.223 47.727 L 456.223 47.727 L 456.223 47.727 Q 459.309 46.281 463.059 46.281 L 463.059 46.281 L 463.059 46.281 Z  M 60.122 47.063 L 71.919 47.063 L 71.919 89.328 L 60.864 89.328 L 60.552 84.914 L 60.552 84.914 Q 58.559 87.414 55.669 88.762 L 55.669 88.762 L 55.669 88.762 Q 52.778 90.109 49.067 90.109 L 49.067 90.109 L 49.067 90.109 Q 42.466 90.109 38.735 86.281 L 38.735 86.281 L 38.735 86.281 Q 35.005 82.453 35.005 74.406 L 35.005 74.406 L 35.005 47.063 L 46.763 47.063 L 46.763 74.484 L 46.763 74.484 Q 46.763 77.609 48.305 79.094 L 48.305 79.094 L 48.305 79.094 Q 49.848 80.578 52.583 80.578 L 52.583 80.578 L 52.583 80.578 Q 58.013 80.578 60.122 76.789 L 60.122 76.789 L 60.122 47.063 L 60.122 47.063 Z  M 102.481 46.281 L 102.481 46.281 Q 108.848 46.281 112.325 50.09 L 112.325 50.09 L 112.325 50.09 Q 115.802 53.898 115.802 62.531 L 115.802 62.531 L 115.802 89.328 L 104.005 89.328 L 104.005 62.492 L 104.005 62.492 Q 104.005 58.742 102.403 57.277 L 102.403 57.277 L 102.403 57.277 Q 100.802 55.813 97.442 55.813 L 97.442 55.813 L 97.442 55.813 Q 95.138 55.813 93.438 56.789 L 93.438 56.789 L 93.438 56.789 Q 91.739 57.766 90.684 59.563 L 90.684 59.563 L 90.684 89.328 L 78.888 89.328 L 78.888 47.063 L 89.942 47.063 L 90.333 51.945 L 90.333 51.945 Q 92.559 49.172 95.645 47.727 L 95.645 47.727 L 95.645 47.727 Q 98.731 46.281 102.481 46.281 L 102.481 46.281 L 102.481 46.281 Z  M 129.528 30.07 L 129.528 30.07 Q 132.497 30.07 134.313 31.77 L 134.313 31.77 L 134.313 31.77 Q 136.13 33.469 136.13 36.125 L 136.13 36.125 L 136.13 36.125 Q 136.13 38.781 134.313 40.48 L 134.313 40.48 L 134.313 40.48 Q 132.497 42.18 129.528 42.18 L 129.528 42.18 L 129.528 42.18 Q 126.598 42.18 124.782 40.48 L 124.782 40.48 L 124.782 40.48 Q 122.966 38.781 122.966 36.125 L 122.966 36.125 L 122.966 36.125 Q 122.966 33.469 124.782 31.77 L 124.782 31.77 L 124.782 31.77 Q 126.598 30.07 129.528 30.07 L 129.528 30.07 L 129.528 30.07 Z  M 135.505 89.328 L 123.669 89.328 L 123.669 47.063 L 135.505 47.063 L 135.505 89.328 L 135.505 89.328 Z  M 164.622 38.039 L 164.622 38.039 Q 161.614 38.039 159.973 39.445 L 159.973 39.445 L 159.973 39.445 Q 158.333 40.852 158.333 43.469 L 158.333 43.469 L 158.333 47.063 L 166.692 47.063 L 166.692 55.656 L 158.333 55.656 L 158.333 89.328 L 146.536 89.328 L 146.536 55.656 L 140.286 55.656 L 140.286 47.063 L 146.536 47.063 L 146.536 43.469 L 146.536 43.469 Q 146.536 38.703 148.43 35.344 L 148.43 35.344 L 148.43 35.344 Q 150.325 31.984 153.86 30.246 L 153.86 30.246 L 153.86 30.246 Q 157.395 28.508 162.2 28.508 L 162.2 28.508 L 162.2 28.508 Q 165.052 28.508 168.098 29.289 L 168.098 29.289 L 168.02 38.391 L 168.02 38.391 Q 166.614 38.039 164.622 38.039 L 164.622 38.039 L 164.622 38.039 Z  M 177.763 30.07 L 177.763 30.07 Q 180.731 30.07 182.548 31.77 L 182.548 31.77 L 182.548 31.77 Q 184.364 33.469 184.364 36.125 L 184.364 36.125 L 184.364 36.125 Q 184.364 38.781 182.548 40.48 L 182.548 40.48 L 182.548 40.48 Q 180.731 42.18 177.763 42.18 L 177.763 42.18 L 177.763 42.18 Q 174.833 42.18 173.016 40.48 L 173.016 40.48 L 173.016 40.48 Q 171.2 38.781 171.2 36.125 L 171.2 36.125 L 171.2 36.125 Q 171.2 33.469 173.016 31.77 L 173.016 31.77 L 173.016 31.77 Q 174.833 30.07 177.763 30.07 L 177.763 30.07 L 177.763 30.07 Z  M 183.739 89.328 L 171.903 89.328 L 171.903 47.063 L 183.739 47.063 L 183.739 89.328 L 183.739 89.328 Z  M 228.95 67.023 L 228.95 72.023 L 202.231 72.023 L 202.231 72.023 Q 202.895 75.969 205.513 78.293 L 205.513 78.293 L 205.513 78.293 Q 208.13 80.617 212.231 80.617 L 212.231 80.617 L 212.231 80.617 Q 215.278 80.617 217.876 79.465 L 217.876 79.465 L 217.876 79.465 Q 220.473 78.313 222.309 76.008 L 222.309 76.008 L 227.973 82.531 L 227.973 82.531 Q 225.747 85.734 221.47 87.922 L 221.47 87.922 L 221.47 87.922 Q 217.192 90.109 211.45 90.109 L 211.45 90.109 L 211.45 90.109 Q 204.966 90.109 200.18 87.375 L 200.18 87.375 L 200.18 87.375 Q 195.395 84.641 192.837 79.953 L 192.837 79.953 L 192.837 79.953 Q 190.278 75.266 190.278 69.602 L 190.278 69.602 L 190.278 68.117 L 190.278 68.117 Q 190.278 61.789 192.661 56.828 L 192.661 56.828 L 192.661 56.828 Q 195.044 51.867 199.536 49.074 L 199.536 49.074 L 199.536 49.074 Q 204.028 46.281 210.161 46.281 L 210.161 46.281 L 210.161 46.281 Q 216.138 46.281 220.356 48.82 L 220.356 48.82 L 220.356 48.82 Q 224.575 51.359 226.763 56.027 L 226.763 56.027 L 226.763 56.027 Q 228.95 60.695 228.95 67.023 L 228.95 67.023 L 228.95 67.023 Z  M 217.388 64.133 L 217.388 63.195 L 217.388 63.195 Q 217.309 59.758 215.493 57.766 L 215.493 57.766 L 215.493 57.766 Q 213.677 55.773 210.083 55.773 L 210.083 55.773 L 210.083 55.773 Q 206.723 55.773 204.829 58 L 204.829 58 L 204.829 58 Q 202.934 60.227 202.348 64.133 L 202.348 64.133 L 217.388 64.133 L 217.388 64.133 Z  M 258.927 29.328 L 270.723 29.328 L 270.723 89.328 L 260.098 89.328 L 259.513 84.797 L 259.513 84.797 Q 255.372 90.109 248.809 90.109 L 248.809 90.109 L 248.809 90.109 Q 243.692 90.109 239.962 87.355 L 239.962 87.355 L 239.962 87.355 Q 236.231 84.602 234.298 79.758 L 234.298 79.758 L 234.298 79.758 Q 232.364 74.914 232.364 68.703 L 232.364 68.703 L 232.364 67.883 L 232.364 67.883 Q 232.364 61.438 234.298 56.555 L 234.298 56.555 L 234.298 56.555 Q 236.231 51.672 239.962 48.977 L 239.962 48.977 L 239.962 48.977 Q 243.692 46.281 248.888 46.281 L 248.888 46.281 L 248.888 46.281 Q 254.903 46.281 258.927 50.852 L 258.927 50.852 L 258.927 29.328 L 258.927 29.328 Z  M 251.817 80.578 L 251.817 80.578 Q 256.778 80.578 258.927 76.359 L 258.927 76.359 L 258.927 60.031 L 258.927 60.031 Q 256.895 55.813 251.895 55.813 L 251.895 55.813 L 251.895 55.813 Q 247.872 55.813 246.016 59.094 L 246.016 59.094 L 246.016 59.094 Q 244.161 62.375 244.161 67.883 L 244.161 67.883 L 244.161 68.703 L 244.161 68.703 Q 244.161 74.133 245.977 77.355 L 245.977 77.355 L 245.977 77.355 Q 247.794 80.578 251.817 80.578 L 251.817 80.578 L 251.817 80.578 Z " fill="url(#_lgradient_6)"/></g><clipPath id="_clipPath_2XpSmTLZQj4fzS6PO1OsSjrAPWER3p3I"><rect x="238.359" y="-50.829" width="90.15" height="158.995" transform="matrix(0.707,0.707,-0.707,0.707,103.288,-192.021)" fill="rgb(255,255,255)"/></clipPath><g clip-path="url(#_clipPath_2XpSmTLZQj4fzS6PO1OsSjrAPWER3p3I)"><defs><filter id="EIWPM1dgX38itBAt2zAmsgw8qqkbaban" x="-200%" y="-200%" width="400%" height="400%" filterUnits="objectBoundingBox" color-interpolation-filters="sRGB"><feGaussianBlur xmlns="http://www.w3.org/2000/svg" in="SourceGraphic" stdDeviation="2.146804531419514"/><feOffset xmlns="http://www.w3.org/2000/svg" dx="0" dy="0" result="pf_100_offsetBlur"/><feFlood xmlns="http://www.w3.org/2000/svg" flood-color="#000000" flood-opacity="0.4"/><feComposite xmlns="http://www.w3.org/2000/svg" in2="pf_100_offsetBlur" operator="in" result="pf_100_dropShadow"/><feBlend xmlns="http://www.w3.org/2000/svg" in="SourceGraphic" in2="pf_100_dropShadow" mode="normal"/></filter></defs><g filter="url(#EIWPM1dgX38itBAt2zAmsgw8qqkbaban)"><linearGradient id="_lgradient_7" x1="0" y1="0.5" x2="1" y2="0.5" gradientTransform="matrix(62.023,0,0,75.073,282.054,25.211)" gradientUnits="userSpaceOnUse"><stop offset="0%" stop-opacity="1" style="stop-color:rgb(72,72,72)"/><stop offset="100%" stop-opacity="1" style="stop-color:rgb(95,79,102)"/></linearGradient><path d=" M 313.285 25.216 L 313.281 25.213 L 313.281 25.219 C 310.634 26.933 308.056 28.28 303.727 28.28 L 303.727 28.28 C 299.393 28.28 294.02 25.503 294.02 25.503 L 294.02 25.503 L 282.054 40.558 L 287.249 47.28 C 287.249 47.28 287.966 48.34 287.966 49.435 L 287.966 49.435 C 287.966 50.532 287.499 52.469 286.067 55.83 L 286.067 55.83 C 284.633 59.191 282.843 64.161 282.843 68.838 L 282.843 68.838 C 282.843 73.515 285.04 87.374 313.067 100.284 L 313.067 100.284 C 313.072 100.282 313.077 100.28 313.081 100.277 L 313.081 100.277 C 313.232 100.212 314.553 99.634 316.566 98.601 L 316.566 98.601 C 341.278 86.19 343.29 73.312 343.29 68.838 L 343.29 68.838 C 343.29 67.838 343.208 66.825 343.066 65.818 L 343.066 65.818 C 343.062 65.797 343.059 65.777 343.056 65.757 L 343.056 65.757 C 343.056 65.751 343.055 65.745 343.054 65.739 L 343.054 65.739 C 342.736 63.35 342.089 60.804 341.306 58.777 L 341.306 58.777 C 340.16 55.806 338.632 52.152 338.345 50.593 L 338.345 50.593 C 338.209 49.853 338.172 49.351 338.213 48.942 L 338.213 48.942 C 338.28 48.556 338.412 48.196 338.543 47.91 L 338.543 47.91 C 338.571 47.855 338.601 47.8 338.632 47.743 L 338.632 47.743 C 338.779 47.475 339.467 46.544 340.307 45.437 L 340.307 45.437 L 344.078 40.558 C 342.314 38.441 340.501 36.367 338.781 34.213 L 338.781 34.213 C 335.095 29.595 332.218 25.451 332.279 25.406 L 332.279 25.406 C 332.279 25.406 331.777 25.771 325.353 27.793 L 325.353 27.793 C 324.552 28.046 323.764 28.195 322.997 28.262 L 322.997 28.262 C 322.798 28.273 322.6 28.28 322.405 28.28 L 322.405 28.28 C 321.07 28.28 319.944 28.152 318.946 27.924 L 318.946 27.924 C 318.052 27.703 317.232 27.407 316.51 27.09 L 316.51 27.09 C 315.419 26.586 314.428 25.956 313.358 25.263 L 313.358 25.263 C 313.315 25.23 313.293 25.211 313.293 25.211 L 313.293 25.211 C 313.29 25.213 313.288 25.214 313.285 25.216 Z  M 313.067 35.613 C 314.498 36.205 316.07 36.693 317.838 37.007 L 317.838 37.007 C 319.134 37.265 320.522 37.421 321.988 37.421 L 321.988 37.421 C 322.519 37.421 323.047 37.399 323.574 37.358 L 323.574 37.358 C 325.517 37.24 327.446 36.848 329.197 36.355 L 329.197 36.355 C 330.305 37.829 331.452 39.334 332.551 40.75 L 332.551 40.75 L 331.689 41.866 L 331.528 42.106 C 331.248 42.519 330.818 43.217 330.407 44.136 L 330.407 44.136 C 329.864 45.294 329.519 46.452 329.363 47.673 L 329.363 47.673 C 329.279 48.234 329.231 48.823 329.231 49.435 L 329.231 49.435 C 329.231 52.088 330.045 55.182 331.87 59.464 L 331.87 59.464 C 333.316 62.855 333.957 65.315 334.21 67.04 L 334.21 67.04 C 334.293 67.681 334.338 68.275 334.33 68.767 L 334.33 68.767 C 334.26 73.279 330.772 78.714 322.819 84.34 L 322.819 84.34 C 319.186 86.911 315.614 88.857 313.064 90.19 L 313.064 90.19 C 313.057 90.187 313.048 90.185 313.041 90.185 L 313.041 90.185 C 302.361 84.745 297.239 80.204 294.734 76.704 L 294.734 76.704 C 292.224 73.198 291.778 70.045 291.778 68.838 L 291.778 68.838 C 291.778 67.219 291.562 65.056 294.053 59.605 L 294.053 59.605 C 295.987 55.371 296.693 52.229 296.693 49.577 L 296.693 49.577 C 296.693 46.026 295.209 43.27 294.519 42.249 L 294.519 42.249 L 294.356 42.01 L 293.407 40.782 L 296.906 36.345 C 299.014 36.942 301.387 37.394 303.727 37.394 L 303.727 37.394 C 307.501 37.394 310.506 36.673 313.067 35.613 Z " fill="url(#_lgradient_7)"/></g></g><clipPath id="_clipPath_WFW0ebEM4Ua6DpnlIIoYIrOBHq3tOcap"><rect x="302.071" y="12.917" width="90.15" height="158.995" transform="matrix(0.707,0.707,-0.707,0.707,167.023,-218.401)" fill="rgb(255,255,255)"/></clipPath><g clip-path="url(#_clipPath_WFW0ebEM4Ua6DpnlIIoYIrOBHq3tOcap)"><defs><filter id="PcNOZnKgbcKwp9ARmVYfPWBwi2WBMtxc" x="-200%" y="-200%" width="400%" height="400%" filterUnits="objectBoundingBox" color-interpolation-filters="sRGB"><feGaussianBlur xmlns="http://www.w3.org/2000/svg" in="SourceGraphic" stdDeviation="2.146804531419514"/><feOffset xmlns="http://www.w3.org/2000/svg" dx="0" dy="0" result="pf_100_offsetBlur"/><feFlood xmlns="http://www.w3.org/2000/svg" flood-color="#000000" flood-opacity="0.4"/><feComposite xmlns="http://www.w3.org/2000/svg" in2="pf_100_offsetBlur" operator="in" result="pf_100_dropShadow"/><feBlend xmlns="http://www.w3.org/2000/svg" in="SourceGraphic" in2="pf_100_dropShadow" mode="normal"/></filter></defs><g filter="url(#PcNOZnKgbcKwp9ARmVYfPWBwi2WBMtxc)"><linearGradient id="_lgradient_8" x1="1" y1="0.5" x2="0" y2="0.5000000000000001" gradientTransform="matrix(62.023,0,0,75.073,282.054,25.211)" gradientUnits="userSpaceOnUse"><stop offset="0%" stop-opacity="1" style="stop-color:rgb(146,217,205)"/><stop offset="100%" stop-opacity="1" style="stop-color:rgb(68,150,208)"/></linearGradient><path d=" M 313.285 25.216 L 313.281 25.213 L 313.281 25.219 C 310.634 26.933 308.056 28.28 303.727 28.28 L 303.727 28.28 C 299.393 28.28 294.02 25.503 294.02 25.503 L 294.02 25.503 L 282.054 40.558 L 287.249 47.28 C 287.249 47.28 287.966 48.34 287.966 49.435 L 287.966 49.435 C 287.966 50.532 287.499 52.469 286.067 55.83 L 286.067 55.83 C 284.633 59.191 282.843 64.161 282.843 68.838 L 282.843 68.838 C 282.843 73.515 285.04 87.374 313.067 100.284 L 313.067 100.284 C 313.072 100.282 313.077 100.28 313.081 100.277 L 313.081 100.277 C 313.232 100.212 314.553 99.634 316.566 98.601 L 316.566 98.601 C 341.278 86.19 343.29 73.312 343.29 68.838 L 343.29 68.838 C 343.29 67.838 343.208 66.825 343.066 65.818 L 343.066 65.818 C 343.062 65.797 343.059 65.777 343.056 65.757 L 343.056 65.757 C 343.056 65.751 343.055 65.745 343.054 65.739 L 343.054 65.739 C 342.736 63.35 342.089 60.804 341.306 58.777 L 341.306 58.777 C 340.16 55.806 338.632 52.152 338.345 50.593 L 338.345 50.593 C 338.209 49.853 338.172 49.351 338.213 48.942 L 338.213 48.942 C 338.28 48.556 338.412 48.196 338.543 47.91 L 338.543 47.91 C 338.571 47.855 338.601 47.8 338.632 47.743 L 338.632 47.743 C 338.779 47.475 339.467 46.544 340.307 45.437 L 340.307 45.437 L 344.078 40.558 C 342.314 38.441 340.501 36.367 338.781 34.213 L 338.781 34.213 C 335.095 29.595 332.218 25.451 332.279 25.406 L 332.279 25.406 C 332.279 25.406 331.777 25.771 325.353 27.793 L 325.353 27.793 C 324.552 28.046 323.764 28.195 322.997 28.262 L 322.997 28.262 C 322.798 28.273 322.6 28.28 322.405 28.28 L 322.405 28.28 C 321.07 28.28 319.944 28.152 318.946 27.924 L 318.946 27.924 C 318.052 27.703 317.232 27.407 316.51 27.09 L 316.51 27.09 C 315.419 26.586 314.428 25.956 313.358 25.263 L 313.358 25.263 C 313.315 25.23 313.293 25.211 313.293 25.211 L 313.293 25.211 C 313.29 25.213 313.288 25.214 313.285 25.216 Z  M 313.067 35.613 C 314.498 36.205 316.07 36.693 317.838 37.007 L 317.838 37.007 C 319.134 37.265 320.522 37.421 321.988 37.421 L 321.988 37.421 C 322.519 37.421 323.047 37.399 323.574 37.358 L 323.574 37.358 C 325.517 37.24 327.446 36.848 329.197 36.355 L 329.197 36.355 C 330.305 37.829 331.452 39.334 332.551 40.75 L 332.551 40.75 L 331.689 41.866 L 331.528 42.106 C 331.248 42.519 330.818 43.217 330.407 44.136 L 330.407 44.136 C 329.864 45.294 329.519 46.452 329.363 47.673 L 329.363 47.673 C 329.279 48.234 329.231 48.823 329.231 49.435 L 329.231 49.435 C 329.231 52.088 330.045 55.182 331.87 59.464 L 331.87 59.464 C 333.316 62.855 333.957 65.315 334.21 67.04 L 334.21 67.04 C 334.293 67.681 334.338 68.275 334.33 68.767 L 334.33 68.767 C 334.26 73.279 330.772 78.714 322.819 84.34 L 322.819 84.34 C 319.186 86.911 315.614 88.857 313.064 90.19 L 313.064 90.19 C 313.057 90.187 313.048 90.185 313.041 90.185 L 313.041 90.185 C 302.361 84.745 297.239 80.204 294.734 76.704 L 294.734 76.704 C 292.224 73.198 291.778 70.045 291.778 68.838 L 291.778 68.838 C 291.778 67.219 291.562 65.056 294.053 59.605 L 294.053 59.605 C 295.987 55.371 296.693 52.229 296.693 49.577 L 296.693 49.577 C 296.693 46.026 295.209 43.27 294.519 42.249 L 294.519 42.249 L 294.356 42.01 L 293.407 40.782 L 296.906 36.345 C 299.014 36.942 301.387 37.394 303.727 37.394 L 303.727 37.394 C 307.501 37.394 310.506 36.673 313.067 35.613 Z " fill="url(#_lgradient_8)"/></g></g></g></svg>